#define gimp_width 12
#define gimp_height 12
static unsigned char gimp_bits[] = {
   0x00, 0x00, 0x00, 0x00, 0xfa, 0x05, 0xfa, 0x05, 0xfa, 0x05, 0xfa, 0x05,
   0xfa, 0x05, 0xfa, 0x05, 0xfa, 0x05, 0xfa, 0x05, 0x00, 0x00, 0x00, 0x00 };
