#define im_width 12
#define im_height 12
static unsigned char im_bits[] = {
   0x00, 0x00, 0x00, 0x00, 0xfe, 0x06, 0xfe, 0x06, 0x82, 0x06, 0x82, 0x06,
   0x82, 0x06, 0x82, 0x06, 0x82, 0x06, 0xfe, 0x06, 0x00, 0x00, 0x00, 0x00 };
