#define im_width 12
#define im_height 12
static unsigned char im_bits[] = {
   0x00, 0x00, 0x00, 0x00, 0xee, 0x06, 0xee, 0x06, 0xee, 0x06, 0x00, 0x06,
   0x00, 0x06, 0xee, 0x06, 0xee, 0x06, 0xee, 0x06, 0x00, 0x00, 0x00, 0x00 };
